<svg version="1.1" xmlns="http://www.w3.org/2000/svg" viewBox="0 0 943.7999744415283 595.2000198364258" width="943.7999744415283" height="595.2000198364258">
  <!-- svg-source:excalidraw -->
  
  <defs>
    <style class="style-fonts">
      @font-face {
        font-family: "Virgil";
        src: url("https://unpkg.com/@excalidraw/excalidraw@0.15.3/dist/excalidraw-assets/Virgil.woff2");
      }
      @font-face {
        font-family: "Cascadia";
        src: url("https://unpkg.com/@excalidraw/excalidraw@0.15.3/dist/excalidraw-assets/Cascadia.woff2");
      }
    </style>
  </defs>
  <rect x="0" y="0" width="943.7999744415283" height="595.2000198364258" fill="#ffffff"></rect><g stroke-linecap="round" transform="translate(10 47.30005645751953) rotate(0 87.60000801086426 23.400001525878935)"><path d="M11.7 0 M11.7 0 C43.65 -1.05, 79.26 -2.32, 163.5 0 M11.7 0 C50.36 -0.4, 90.57 0.98, 163.5 0 M163.5 0 C173.13 0.68, 177 4.5, 175.2 11.7 M163.5 0 C172.47 1.31, 174.5 5.95, 175.2 11.7 M175.2 11.7 C174.37 19.9, 176.24 25.15, 175.2 35.1 M175.2 11.7 C175.69 20.08, 175.57 27.97, 175.2 35.1 M175.2 35.1 C174.22 44.02, 172.9 47.02, 163.5 46.8 M175.2 35.1 C173.82 42.01, 171.25 47.86, 163.5 46.8 M163.5 46.8 C119.7 46.45, 71.74 47.9, 11.7 46.8 M163.5 46.8 C114.05 47.17, 65.44 45.77, 11.7 46.8 M11.7 46.8 C3.82 47.47, 1.47 43.32, 0 35.1 M11.7 46.8 C4.19 45.72, -0.32 43.98, 0 35.1 M0 35.1 C0.92 27.96, 1.47 18.92, 0 11.7 M0 35.1 C-0.25 25.34, 0.62 16.76, 0 11.7 M0 11.7 C-0.4 3.31, 3.74 -1.07, 11.7 0 M0 11.7 C0.79 3.23, 2.09 -0.99, 11.7 0" stroke="#000000" stroke-width="1" fill="none"></path></g><g transform="translate(77.30002021789551 58.200057983398494) rotate(0 20.29998779296875 12.5)"><text x="20.29998779296875" y="0" font-family="Virgil, Segoe UI Emoji" font-size="20px" fill="#000000" text-anchor="middle" style="white-space: pre;" direction="ltr" dominant-baseline="text-before-edge">juan</text></g><g stroke-linecap="round"><g transform="translate(186.39999771118164 71.30004119873053) rotate(0 39.40751726888119 -0.9692442998581328)"><path d="M-0.37 -0.46 C12.7 -0.52, 65.76 0.15, 79.18 -0.06 M1.64 -1.75 C14.48 -2.14, 65.17 -1.76, 78.22 -1.58" stroke="#000000" stroke-width="1" fill="none"></path></g><g transform="translate(186.39999771118164 71.30004119873053) rotate(0 39.40751726888119 -0.9692442998581328)"><path d="M49.16 8.38 C62.14 6.48, 69.69 1.11, 78.9 -0.11 M49.79 8.88 C59.5 5.78, 68.63 2.64, 78.74 -0.79" stroke="#000000" stroke-width="1" fill="none"></path></g><g transform="translate(186.39999771118164 71.30004119873053) rotate(0 39.40751726888119 -0.9692442998581328)"><path d="M49.36 -12.14 C62.32 -6.55, 69.79 -4.42, 78.9 -0.11 M49.99 -11.64 C59.66 -8.15, 68.73 -4.7, 78.74 -0.79" stroke="#000000" stroke-width="1" fill="none"></path></g></g><mask></mask><g stroke-linecap="round" transform="translate(280.0000190734863 50.90004730224615) rotate(0 30 28.199996948242188)"><path d="M28.48 -0.76 C34.59 -1.33, 42.61 2.54, 47.9 6.4 C53.18 10.26, 58.82 16.7, 60.2 22.42 C61.58 28.14, 59.28 35.36, 56.19 40.71 C53.09 46.05, 47.65 52.26, 41.62 54.49 C35.59 56.73, 25.99 55.87, 19.99 54.12 C13.98 52.37, 8.84 49.05, 5.6 44 C2.36 38.96, -0.1 29.81, 0.54 23.85 C1.18 17.88, 4.36 12.27, 9.45 8.21 C14.53 4.15, 26.98 0.65, 31.06 -0.53 C35.14 -1.72, 33.67 0.52, 33.92 1.08 M26.93 -0.2 C33.18 -1.44, 41.45 0.44, 46.71 3.88 C51.97 7.33, 56.55 14.73, 58.48 20.46 C60.4 26.18, 60.62 33.01, 58.27 38.23 C55.92 43.44, 50.19 48.83, 44.39 51.75 C38.59 54.67, 29.85 56.72, 23.47 55.75 C17.08 54.78, 10.08 50.61, 6.09 45.93 C2.1 41.25, -0.88 33.92, -0.47 27.67 C-0.07 21.42, 4.28 13.23, 8.52 8.44 C12.77 3.64, 22.03 0.25, 25 -1.11 C27.98 -2.47, 26.17 -0.22, 26.38 0.27" stroke="#000000" stroke-width="1" fill="none"></path></g><g transform="translate(299.0968208258782 66.6596351789463) rotate(0 10.689994812011719 12.5)"><text x="10.689994812011719" y="0" font-family="Virgil, Segoe UI Emoji" font-size="20px" fill="#000000" text-anchor="middle" style="white-space: pre;" direction="ltr" dominant-baseline="text-before-edge">{}</text></g><g mask="url(#mask-f_lw5WWuLWCe5iS6j23ex)" stroke-linecap="round"><g transform="translate(341.48518495000314 69.71768742460682) rotate(0 72.58635510746683 -17.775165658477448)"><path d="M-0.68 -0.92 C23.81 -7.15, 121.29 -30.97, 145.85 -36.76 M1.17 1.21 C25.57 -4.87, 120.58 -28.77, 144.76 -35.2" stroke="#000000" stroke-width="1" fill="none"></path></g><g transform="translate(341.48518495000314 69.71768742460682) rotate(0 72.58635510746683 -17.775165658477448)"><path d="M118.49 -18.67 C125.16 -20.65, 132.16 -25.16, 143.87 -33.37 M119.61 -17.81 C128.57 -23.68, 137.52 -29.28, 144.22 -35.4" stroke="#000000" stroke-width="1" fill="none"></path></g><g transform="translate(341.48518495000314 69.71768742460682) rotate(0 72.58635510746683 -17.775165658477448)"><path d="M113.37 -38.54 C121.21 -36.35, 129.28 -36.71, 143.87 -33.37 M114.49 -37.68 C124.97 -36.88, 135.63 -35.86, 144.22 -35.4" stroke="#000000" stroke-width="1" fill="none"></path></g></g><mask id="mask-f_lw5WWuLWCe5iS6j23ex"><rect x="0" y="0" fill="#fff" width="587.5999946594238" height="206.5140840192052"></rect><rect x="383.1526209326431" y="38.819489127307634" fill="#000" width="62.779937744140625" height="25" opacity="1"></rect></mask><g transform="translate(383.1526209326432 38.819489127307634) rotate(0 30.9189191248268 13.123032638821684)"><text x="31.389968872070312" y="0" font-family="Virgil, Segoe UI Emoji" font-size="20px" fill="#000000" text-anchor="middle" style="white-space: pre;" direction="ltr" dominant-baseline="text-before-edge">nombre</text></g><g stroke-linecap="round" transform="translate(499.40001106262207 10) rotate(0 87.60000801086426 23.400001525878935)"><path d="M11.7 0 M11.7 0 C43.65 -1.05, 79.26 -2.32, 163.5 0 M11.7 0 C50.36 -0.4, 90.57 0.98, 163.5 0 M163.5 0 C173.13 0.68, 177 4.5, 175.2 11.7 M163.5 0 C172.47 1.31, 174.5 5.95, 175.2 11.7 M175.2 11.7 C174.37 19.9, 176.24 25.15, 175.2 35.1 M175.2 11.7 C175.69 20.08, 175.57 27.97, 175.2 35.1 M175.2 35.1 C174.22 44.02, 172.9 47.02, 163.5 46.8 M175.2 35.1 C173.82 42.01, 171.25 47.86, 163.5 46.8 M163.5 46.8 C119.7 46.45, 71.74 47.9, 11.7 46.8 M163.5 46.8 C114.05 47.17, 65.44 45.77, 11.7 46.8 M11.7 46.8 C3.82 47.47, 1.47 43.32, 0 35.1 M11.7 46.8 C4.19 45.72, -0.32 43.98, 0 35.1 M0 35.1 C0.92 27.96, 1.47 18.92, 0 11.7 M0 35.1 C-0.25 25.34, 0.62 16.76, 0 11.7 M0 11.7 C-0.4 3.31, 3.74 -1.07, 11.7 0 M0 11.7 C0.79 3.23, 2.09 -0.99, 11.7 0" stroke="#000000" stroke-width="1" fill="none"></path></g><g transform="translate(566.7000312805176 20.900001525878963) rotate(0 20.29998779296875 12.5)"><text x="20.29998779296875" y="0" font-family="Virgil, Segoe UI Emoji" font-size="20px" fill="#000000" text-anchor="middle" style="white-space: pre;" direction="ltr" dominant-baseline="text-before-edge">juan</text></g><g mask="url(#mask-dHAaW9-sDWBjMHt2Otyb5)" stroke-linecap="round"><g transform="translate(339.87904299146606 110.71242277882567) rotate(0 66.46457230149642 32.95160536719368)"><path d="M-0.68 -0.92 C21.77 9.85, 111.08 54.05, 133.61 65.27 M1.17 1.21 C23.53 12.14, 110.38 56.25, 132.52 66.82" stroke="#000000" stroke-width="1" fill="none"></path></g><g transform="translate(339.87904299146606 110.71242277882567) rotate(0 66.46457230149642 32.95160536719368)"><path d="M101.17 63.08 C109 65.36, 117.06 65.09, 131.63 68.65 M102.29 63.95 C112.75 64.88, 123.39 66.04, 131.97 66.63" stroke="#000000" stroke-width="1" fill="none"></path></g><g transform="translate(339.87904299146606 110.71242277882567) rotate(0 66.46457230149642 32.95160536719368)"><path d="M110.26 44.69 C116.29 50.76, 122.46 54.32, 131.63 68.65 M111.38 45.55 C118.64 52.53, 126.25 59.83, 131.97 66.63" stroke="#000000" stroke-width="1" fill="none"></path></g></g><mask id="mask-dHAaW9-sDWBjMHt2Otyb5"><rect x="0" y="0" fill="#fff" width="573.7502870889459" height="275.9437409052187"></rect><rect x="359.71471234245206" y="130.82808184202213" fill="#000" width="94.19990539550781" height="25" opacity="1"></rect></mask><g transform="translate(359.7147123424521 130.82808184202213) rotate(0 46.628902950510366 12.835946303997162)"><text x="47.099952697753906" y="0" font-family="Virgil, Segoe UI Emoji" font-size="20px" fill="#000000" text-anchor="middle" style="white-space: pre;" direction="ltr" dominant-baseline="text-before-edge">residencia</text></g><g mask="url(#mask-tUNDzr2m5WAmIauOsox7i)" stroke-linecap="round"><g transform="translate(286.013639551957 114.97520075369226) rotate(0 5.386342900435551 66.53775411021365)"><path d="M-0.68 -0.92 C1.41 21.05, 9.29 110.03, 11.45 132.44 M1.17 1.21 C3.17 23.33, 8.58 112.23, 10.36 134" stroke="#000000" stroke-width="1" fill="none"></path></g><g transform="translate(286.013639551957 114.97520075369226) rotate(0 5.386342900435551 66.53775411021365)"><path d="M-3.38 106.15 C0.9 113.36, 5.29 118.11, 9.47 135.83 M-2.26 107.01 C2.1 115.82, 6.87 125.02, 9.82 133.8" stroke="#000000" stroke-width="1" fill="none"></path></g><g transform="translate(286.013639551957 114.97520075369226) rotate(0 5.386342900435551 66.53775411021365)"><path d="M17.09 104.72 C17.11 112.11, 17.23 117.16, 9.47 135.83 M18.21 105.58 C15.73 114.68, 13.68 124.36, 9.82 133.8" stroke="#000000" stroke-width="1" fill="none"></path></g></g><mask id="mask-tUNDzr2m5WAmIauOsox7i"><rect x="0" y="0" fill="#fff" width="397.7284248473152" height="347.37881636612514"></rect><rect x="268.3510508153587" y="168.6770085599087" fill="#000" width="47.03996276855469" height="25" opacity="1"></rect></mask><g transform="translate(268.35105081535875 168.6770085599087) rotate(0 23.048931637033803 12.835946303997162)"><text x="23.519981384277344" y="0" font-family="Virgil, Segoe UI Emoji" font-size="20px" fill="#000000" text-anchor="middle" style="white-space: pre;" direction="ltr" dominant-baseline="text-before-edge">edad</text></g><g stroke-linecap="round" transform="translate(481.1999702453613 159.80002593994146) rotate(0 30 28.199996948242188)"><path d="M28.48 -0.76 C34.59 -1.33, 42.61 2.54, 47.9 6.4 C53.18 10.26, 58.82 16.7, 60.2 22.42 C61.58 28.14, 59.28 35.36, 56.19 40.71 C53.09 46.05, 47.65 52.26, 41.62 54.49 C35.59 56.73, 25.99 55.87, 19.99 54.12 C13.98 52.37, 8.84 49.05, 5.6 44 C2.36 38.96, -0.1 29.81, 0.54 23.85 C1.18 17.88, 4.36 12.27, 9.45 8.21 C14.53 4.15, 26.98 0.65, 31.06 -0.53 C35.14 -1.72, 33.67 0.52, 33.92 1.08 M26.93 -0.2 C33.18 -1.44, 41.45 0.44, 46.71 3.88 C51.97 7.33, 56.55 14.73, 58.48 20.46 C60.4 26.18, 60.62 33.01, 58.27 38.23 C55.92 43.44, 50.19 48.83, 44.39 51.75 C38.59 54.67, 29.85 56.72, 23.47 55.75 C17.08 54.78, 10.08 50.61, 6.09 45.93 C2.1 41.25, -0.88 33.92, -0.47 27.67 C-0.07 21.42, 4.28 13.23, 8.52 8.44 C12.77 3.64, 22.03 0.25, 25 -1.11 C27.98 -2.47, 26.17 -0.22, 26.38 0.27" stroke="#000000" stroke-width="1" fill="none"></path></g><g transform="translate(500.29677199775324 175.55961381664162) rotate(0 10.689994812011719 12.5)"><text x="10.689994812011719" y="0" font-family="Virgil, Segoe UI Emoji" font-size="20px" fill="#000000" text-anchor="middle" style="white-space: pre;" direction="ltr" dominant-baseline="text-before-edge">{}</text></g><g stroke-linecap="round" transform="translate(234.39998245239258 262.1000289916993) rotate(0 61.20001220703125 21.599990844726562)"><path d="M10.8 0 M10.8 0 C32.44 -2.37, 58.11 -0.32, 111.6 0 M10.8 0 C37.45 1.28, 65.66 1.01, 111.6 0 M111.6 0 C120.02 -1.4, 120.74 3.13, 122.4 10.8 M111.6 0 C119.21 -0.15, 123.94 2.84, 122.4 10.8 M122.4 10.8 C122.21 17.68, 124.29 25.39, 122.4 32.4 M122.4 10.8 C123.11 18.81, 121.52 26.31, 122.4 32.4 M122.4 32.4 C121.38 39.36, 118.3 42.99, 111.6 43.2 M122.4 32.4 C123.77 37.82, 117.56 44.76, 111.6 43.2 M111.6 43.2 C85.06 44.29, 57.84 44.79, 10.8 43.2 M111.6 43.2 C87.08 44.06, 63.36 43.85, 10.8 43.2 M10.8 43.2 C2.84 43.09, -1 39.59, 0 32.4 M10.8 43.2 C4.22 41.43, 0.29 40.95, 0 32.4 M0 32.4 C-0.72 28.21, -0.58 24.72, 0 10.8 M0 32.4 C0.26 25.46, 0.79 18.11, 0 10.8 M0 10.8 C1.07 4.99, 3.2 1.76, 10.8 0 M0 10.8 C-1.77 3.9, 1.53 -0.82, 10.8 0" stroke="#000000" stroke-width="1" fill="none"></path></g><g transform="translate(282.3000068664551 271.20001983642584) rotate(0 13.29998779296875 12.5)"><text x="13.29998779296875" y="0" font-family="Virgil, Segoe UI Emoji" font-size="20px" fill="#000000" text-anchor="middle" style="white-space: pre;" direction="ltr" dominant-baseline="text-before-edge">25</text></g><g mask="url(#mask-bLNJZGW_GT6FNaaCYbrhM)" stroke-linecap="round"><g transform="translate(546.8153043953836 170.45363520075563) rotate(0 79.70668946702295 3.586922126929892)"><path d="M0.62 1.18 C27.14 2.16, 133.36 5.69, 159.93 6.42 M-0.51 0.76 C25.84 1.34, 132.67 3.64, 159.37 4.63" stroke="#000000" stroke-width="1" fill="none"></path></g><g transform="translate(546.8153043953836 170.45363520075563) rotate(0 79.70668946702295 3.586922126929892)"><path d="M132.87 15.33 C142.43 11.85, 151.46 8.73, 157.83 4.9 M130.16 14.19 C137.78 11.75, 143.71 10.37, 158.67 4.45" stroke="#000000" stroke-width="1" fill="none"></path></g><g transform="translate(546.8153043953836 170.45363520075563) rotate(0 79.70668946702295 3.586922126929892)"><path d="M133.45 -5.18 C142.89 -1.09, 151.71 3.35, 157.83 4.9 M130.74 -6.32 C138.17 -4.44, 143.97 -1.51, 158.67 4.45" stroke="#000000" stroke-width="1" fill="none"></path></g></g><mask id="mask-bLNJZGW_GT6FNaaCYbrhM"><rect x="0" y="0" fill="#fff" width="805.9999580383301" height="276.22895279551045"></rect><rect x="586.3176730259387" y="160.8412939981331" fill="#000" width="80.17991638183594" height="25" opacity="1"></rect></mask><g transform="translate(586.3176730259388 160.84129399813298) rotate(0 40.20432083646773 13.19926332955248)"><text x="40.08995819091797" y="0" font-family="Virgil, Segoe UI Emoji" font-size="20px" fill="#000000" text-anchor="middle" style="white-space: pre;" direction="ltr" dominant-baseline="text-before-edge">dirección</text></g><g mask="url(#mask-DwRvgFOjXC9YiWYtOhFod)" stroke-linecap="round"><g transform="translate(543.8856564279367 205.98103392506954) rotate(0 51.714338231487204 31.299269433068105)"><path d="M0.62 1.18 C17.81 11.4, 86.71 51.88, 103.94 61.84 M-0.51 0.76 C16.51 10.58, 86.01 49.82, 103.38 60.06" stroke="#000000" stroke-width="1" fill="none"></path></g><g transform="translate(543.8856564279367 205.98103392506954) rotate(0 51.714338231487204 31.299269433068105)"><path d="M75.8 56.13 C85.83 58.04, 95.26 60.31, 101.84 60.32 M73.09 54.99 C80.89 55.62, 87.05 57.32, 102.68 59.87" stroke="#000000" stroke-width="1" fill="none"></path></g><g transform="translate(543.8856564279367 205.98103392506954) rotate(0 51.714338231487204 31.299269433068105)"><path d="M86.03 38.34 C92.37 46.87, 98.03 55.7, 101.84 60.32 M83.32 37.2 C88.91 41.64, 92.91 47.07, 102.68 59.87" stroke="#000000" stroke-width="1" fill="none"></path></g></g><mask id="mask-DwRvgFOjXC9YiWYtOhFod"><rect x="0" y="0" fill="#fff" width="747.0856075998117" height="367.1810461321008"></rect><rect x="564.5456600900461" y="224.0810400285851" fill="#000" width="61.87994384765625" height="25" opacity="1"></rect></mask><g transform="translate(564.5456600900461 224.0810400285851) rotate(0 31.05433456937783 13.19926332955248)"><text x="30.939971923828125" y="0" font-family="Virgil, Segoe UI Emoji" font-size="20px" fill="#000000" text-anchor="middle" style="white-space: pre;" direction="ltr" dominant-baseline="text-before-edge">ciudad</text></g><g mask="url(#mask-nYZM4V9Yi54KxfdsJhfLo)" stroke-linecap="round"><g transform="translate(510.885717463093 225.18101561452266) rotate(0 46.31434433500283 53.49929689888842)"><path d="M0.62 1.18 C16.01 18.8, 77.71 88.88, 93.14 106.24 M-0.51 0.76 C14.71 17.98, 77.01 86.82, 92.58 104.46" stroke="#000000" stroke-width="1" fill="none"></path></g><g transform="translate(510.885717463093 225.18101561452266) rotate(0 46.31434433500283 53.49929689888842)"><path d="M68.11 91.53 C77.03 96.78, 85.32 102.37, 91.04 104.72 M65.39 90.39 C72.51 92.94, 78.01 96.52, 91.88 104.27" stroke="#000000" stroke-width="1" fill="none"></path></g><g transform="translate(510.885717463093 225.18101561452266) rotate(0 46.31434433500283 53.49929689888842)"><path d="M83.4 77.84 C86.74 88.22, 89.39 98.86, 91.04 104.72 M80.68 76.7 C84.54 82.22, 86.83 88.69, 91.88 104.27" stroke="#000000" stroke-width="1" fill="none"></path></g></g><mask id="mask-nYZM4V9Yi54KxfdsJhfLo"><rect x="0" y="0" fill="#fff" width="703.2856808419992" height="430.78108275319454"></rect><rect x="537.8657208200266" y="265.48104918385854" fill="#000" width="38.43995666503906" height="25" opacity="1"></rect></mask><g transform="translate(537.8657208200266 265.48104918385854) rotate(0 19.334340978069235 13.19926332955248)"><text x="19.21997833251953" y="0" font-family="Virgil, Segoe UI Emoji" font-size="20px" fill="#000000" text-anchor="middle" style="white-space: pre;" direction="ltr" dominant-baseline="text-before-edge">pais</text></g><g stroke-linecap="round" transform="translate(713.7999744415283 149.19999694824224) rotate(0 110 30)"><path d="M15 0 M15 0 C55.41 -1.29, 99.48 -2.55, 205 0 M15 0 C63.55 -0.37, 113.65 1.02, 205 0 M205 0 C216.83 0.68, 221.8 5.6, 220 15 M205 0 C216.17 1.31, 219.3 7.05, 220 15 M220 15 C219.19 25.29, 221.06 32.64, 220 45 M220 15 C220.42 25.68, 220.31 35.87, 220 45 M220 45 C219.02 56.12, 216.6 60.22, 205 60 M220 45 C218.62 54.11, 214.95 61.06, 205 60 M205 60 C149.7 59.6, 90.26 61.05, 15 60 M205 60 C143.1 60.22, 82.06 58.83, 15 60 M15 60 C4.92 60.67, 1.47 55.42, 0 45 M15 60 C5.29 58.92, -0.32 56.08, 0 45 M0 45 C0.89 35.56, 1.44 24.21, 0 15 M0 45 C-0.26 32.71, 0.61 21.61, 0 15 M0 15 C-0.4 4.41, 4.84 -1.07, 15 0 M0 15 C0.79 4.33, 3.19 -0.99, 15 0" stroke="#000000" stroke-width="1" fill="none"></path></g><g transform="translate(723.0600452423096 166.69999694824224) rotate(0 100.73992919921875 12.5)"><text x="100.73992919921875" y="0" font-family="Virgil, Segoe UI Emoji" font-size="20px" fill="#000000" text-anchor="middle" style="white-space: pre;" direction="ltr" dominant-baseline="text-before-edge">"Loma Hermosa 240"</text></g><g stroke-linecap="round" transform="translate(657.1999702453613 247.20001983642584) rotate(0 61.20001220703125 21.599990844726562)"><path d="M10.8 0 M10.8 0 C32.44 -2.37, 58.11 -0.32, 111.6 0 M10.8 0 C37.45 1.28, 65.66 1.01, 111.6 0 M111.6 0 C120.02 -1.4, 120.74 3.13, 122.4 10.8 M111.6 0 C119.21 -0.15, 123.94 2.84, 122.4 10.8 M122.4 10.8 C122.21 17.68, 124.29 25.39, 122.4 32.4 M122.4 10.8 C123.11 18.81, 121.52 26.31, 122.4 32.4 M122.4 32.4 C121.38 39.36, 118.3 42.99, 111.6 43.2 M122.4 32.4 C123.77 37.82, 117.56 44.76, 111.6 43.2 M111.6 43.2 C85.06 44.29, 57.84 44.79, 10.8 43.2 M111.6 43.2 C87.08 44.06, 63.36 43.85, 10.8 43.2 M10.8 43.2 C2.84 43.09, -1 39.59, 0 32.4 M10.8 43.2 C4.22 41.43, 0.29 40.95, 0 32.4 M0 32.4 C-0.72 28.21, -0.58 24.72, 0 10.8 M0 32.4 C0.26 25.46, 0.79 18.11, 0 10.8 M0 10.8 C1.07 4.99, 3.2 1.76, 10.8 0 M0 10.8 C-1.77 3.9, 1.53 -0.82, 10.8 0" stroke="#000000" stroke-width="1" fill="none"></path></g><g transform="translate(690.6599998474121 256.3000106811524) rotate(0 27.73998260498047 12.5)"><text x="27.73998260498047" y="0" font-family="Virgil, Segoe UI Emoji" font-size="20px" fill="#000000" text-anchor="middle" style="white-space: pre;" direction="ltr" dominant-baseline="text-before-edge">"Lima"</text></g><g stroke-linecap="round" transform="translate(612.1999702453613 317.8000564575196) rotate(0 61.20001220703125 21.599990844726562)"><path d="M10.8 0 M10.8 0 C32.44 -2.37, 58.11 -0.32, 111.6 0 M10.8 0 C37.45 1.28, 65.66 1.01, 111.6 0 M111.6 0 C120.02 -1.4, 120.74 3.13, 122.4 10.8 M111.6 0 C119.21 -0.15, 123.94 2.84, 122.4 10.8 M122.4 10.8 C122.21 17.68, 124.29 25.39, 122.4 32.4 M122.4 10.8 C123.11 18.81, 121.52 26.31, 122.4 32.4 M122.4 32.4 C121.38 39.36, 118.3 42.99, 111.6 43.2 M122.4 32.4 C123.77 37.82, 117.56 44.76, 111.6 43.2 M111.6 43.2 C85.06 44.29, 57.84 44.79, 10.8 43.2 M111.6 43.2 C87.08 44.06, 63.36 43.85, 10.8 43.2 M10.8 43.2 C2.84 43.09, -1 39.59, 0 32.4 M10.8 43.2 C4.22 41.43, 0.29 40.95, 0 32.4 M0 32.4 C-0.72 28.21, -0.58 24.72, 0 10.8 M0 32.4 C0.26 25.46, 0.79 18.11, 0 10.8 M0 10.8 C1.07 4.99, 3.2 1.76, 10.8 0 M0 10.8 C-1.77 3.9, 1.53 -0.82, 10.8 0" stroke="#000000" stroke-width="1" fill="none"></path></g><g transform="translate(644.7800102233887 326.90004730224615) rotate(0 28.619972229003906 12.5)"><text x="28.619972229003906" y="0" font-family="Virgil, Segoe UI Emoji" font-size="20px" fill="#000000" text-anchor="middle" style="white-space: pre;" direction="ltr" dominant-baseline="text-before-edge">"Peru"</text></g><g stroke-linecap="round" transform="translate(340.9999885559082 528.8000259399414) rotate(0 30 28.199996948242188)"><path d="M28.48 -0.76 C34.59 -1.33, 42.61 2.54, 47.9 6.4 C53.18 10.26, 58.82 16.7, 60.2 22.42 C61.58 28.14, 59.28 35.36, 56.19 40.71 C53.09 46.05, 47.65 52.26, 41.62 54.49 C35.59 56.73, 25.99 55.87, 19.99 54.12 C13.98 52.37, 8.84 49.05, 5.6 44 C2.36 38.96, -0.1 29.81, 0.54 23.85 C1.18 17.88, 4.36 12.27, 9.45 8.21 C14.53 4.15, 26.98 0.65, 31.06 -0.53 C35.14 -1.72, 33.67 0.52, 33.92 1.08 M26.93 -0.2 C33.18 -1.44, 41.45 0.44, 46.71 3.88 C51.97 7.33, 56.55 14.73, 58.48 20.46 C60.4 26.18, 60.62 33.01, 58.27 38.23 C55.92 43.44, 50.19 48.83, 44.39 51.75 C38.59 54.67, 29.85 56.72, 23.47 55.75 C17.08 54.78, 10.08 50.61, 6.09 45.93 C2.1 41.25, -0.88 33.92, -0.47 27.67 C-0.07 21.42, 4.28 13.23, 8.52 8.44 C12.77 3.64, 22.03 0.25, 25 -1.11 C27.98 -2.47, 26.17 -0.22, 26.38 0.27" stroke="#000000" stroke-width="1" fill="none"></path></g><g transform="translate(360.09679030830006 544.5596138166416) rotate(0 10.689994812011719 12.5)"><text x="10.689994812011719" y="0" font-family="Virgil, Segoe UI Emoji" font-size="20px" fill="#000000" text-anchor="middle" style="white-space: pre;" direction="ltr" dominant-baseline="text-before-edge">{}</text></g><g mask="url(#mask-TKotXN0yaquzxDA7SoqxB)" stroke-linecap="round"><g transform="translate(353.7426172705338 522.4622687779699) rotate(0 -26.63457472741311 -101.1751595549618)"><path d="M-0.68 -0.92 C-9.39 -34.95, -44.71 -169.97, -53.35 -203.56 M1.17 1.21 C-7.63 -32.67, -45.42 -167.77, -54.44 -202" stroke="#000000" stroke-width="1" fill="none"></path></g><g transform="translate(353.7426172705338 522.4622687779699) rotate(0 -26.63457472741311 -101.1751595549618)"><path d="M-38.66 -177.94 C-40.81 -181.73, -42.58 -187.81, -55.33 -200.17 M-37.54 -177.08 C-42.53 -185.84, -47.6 -193.95, -54.98 -202.2" stroke="#000000" stroke-width="1" fill="none"></path></g><g transform="translate(353.7426172705338 522.4622687779699) rotate(0 -26.63457472741311 -101.1751595549618)"><path d="M-58.46 -172.55 C-56.5 -177.35, -54.14 -184.56, -55.33 -200.17 M-57.34 -171.69 C-55.68 -182.07, -54.14 -191.97, -54.98 -202.2" stroke="#000000" stroke-width="1" fill="none"></path></g></g><mask id="mask-TKotXN0yaquzxDA7SoqxB"><rect x="0" y="0" fill="#fff" width="506.8278808033006" height="826.0586531655371"></rect><rect x="303.6800041198731" y="408.16407658418643" fill="#000" width="47.03996276855469" height="25" opacity="1"></rect></mask><g transform="translate(303.68000411987305 408.16407658418643) rotate(0 23.428038423247642 13.123032638821712)"><text x="23.519981384277344" y="0" font-family="Virgil, Segoe UI Emoji" font-size="20px" fill="#000000" text-anchor="middle" style="white-space: pre;" direction="ltr" dominant-baseline="text-before-edge">edad</text></g><g mask="url(#mask-mqnA3okMvlbEmQUT1XW4j)" stroke-linecap="round"><g transform="translate(391.1426264258073 522.6623420201574) rotate(0 48.58635510746683 -153.3751870207821)"><path d="M-0.68 -0.92 C15.81 -52.35, 81.29 -256.97, 97.85 -307.96 M1.17 1.21 C17.57 -50.07, 80.58 -254.77, 96.76 -306.4" stroke="#000000" stroke-width="1" fill="none"></path></g><g transform="translate(391.1426264258073 522.6623420201574) rotate(0 48.58635510746683 -153.3751870207821)"><path d="M96.67 -276.88 C97.81 -281.72, 99.35 -288.94, 95.87 -304.57 M97.79 -276.02 C98.15 -286.46, 98.37 -296.39, 96.22 -306.6" stroke="#000000" stroke-width="1" fill="none"></path></g><g transform="translate(391.1426264258073 522.6623420201574) rotate(0 48.58635510746683 -153.3751870207821)"><path d="M77.07 -282.96 C82.33 -286.42, 87.96 -292.37, 95.87 -304.57 M78.19 -282.1 C85.02 -290.34, 91.78 -298.24, 96.22 -306.6" stroke="#000000" stroke-width="1" fill="none"></path></g></g><mask id="mask-mqnA3okMvlbEmQUT1XW4j"><rect x="0" y="0" fill="#fff" width="589.257436135228" height="930.6587813393652"></rect><rect x="393.1000785827637" y="356.1641223605536" fill="#000" width="94.19990539550781" height="25" opacity="1"></rect></mask><g transform="translate(393.1000785827637 356.1641223605536) rotate(0 46.628902950510394 13.123032638821712)"><text x="47.099952697753906" y="0" font-family="Virgil, Segoe UI Emoji" font-size="20px" fill="#000000" text-anchor="middle" style="white-space: pre;" direction="ltr" dominant-baseline="text-before-edge">residencia</text></g><g mask="url(#mask-d3xnV-nrNzTOHde-RbhYR)" stroke-linecap="round"><g transform="translate(406.7426325293229 561.0624274693762) rotate(0 110.98633374516209 -0.9751778655086696)"><path d="M-0.68 -0.92 C36.61 -1.55, 185.29 -2.97, 222.65 -3.16 M1.17 1.21 C38.37 0.73, 184.58 -0.77, 221.56 -1.6" stroke="#000000" stroke-width="1" fill="none"></path></g><g transform="translate(406.7426325293229 561.0624274693762) rotate(0 110.98633374516209 -0.9751778655086696)"><path d="M192 8.65 C199.39 8, 207.08 4.8, 220.67 0.23 M193.12 9.52 C203.12 5.76, 213.16 2.26, 221.02 -1.8" stroke="#000000" stroke-width="1" fill="none"></path></g><g transform="translate(406.7426325293229 561.0624274693762) rotate(0 110.98633374516209 -0.9751778655086696)"><path d="M191.68 -11.87 C199.24 -8.23, 207 -7.15, 220.67 0.23 M192.8 -11 C202.71 -7.91, 212.86 -4.58, 221.02 -1.8" stroke="#000000" stroke-width="1" fill="none"></path></g></g><mask id="mask-d3xnV-nrNzTOHde-RbhYR"><rect x="0" y="0" fill="#fff" width="729.6573995141342" height="664.2588484780371"></rect><rect x="486.8100471496582" y="546.9642169650458" fill="#000" width="62.779937744140625" height="25" opacity="1"></rect></mask><g transform="translate(486.8100471496582 546.9642169650458) rotate(0 30.9189191248268 13.123032638821712)"><text x="31.389968872070312" y="0" font-family="Virgil, Segoe UI Emoji" font-size="20px" fill="#000000" text-anchor="middle" style="white-space: pre;" direction="ltr" dominant-baseline="text-before-edge">nombre</text></g><g stroke-linecap="round"><g transform="translate(149.94259895998692 561.2621345006262) rotate(0 91.78634442631447 -2.7751351408992946)"><path d="M-0.68 -0.92 C30.21 -2.15, 153.29 -5.97, 184.25 -6.76 M1.17 1.21 C31.97 0.13, 152.58 -3.77, 183.16 -5.2" stroke="#000000" stroke-width="1" fill="none"></path></g><g transform="translate(149.94259895998692 561.2621345006262) rotate(0 91.78634442631447 -2.7751351408992946)"><path d="M153.85 5.7 C161.19 4.91, 168.82 1.58, 182.27 -3.37 M154.98 6.56 C164.89 2.59, 174.86 -1.13, 182.62 -5.4" stroke="#000000" stroke-width="1" fill="none"></path></g><g transform="translate(149.94259895998692 561.2621345006262) rotate(0 91.78634442631447 -2.7751351408992946)"><path d="M153.06 -14.81 C160.67 -11.31, 168.47 -10.37, 182.27 -3.37 M154.18 -13.95 C164.17 -11.07, 174.4 -7.96, 182.62 -5.4" stroke="#000000" stroke-width="1" fill="none"></path></g></g><mask></mask><g stroke-linecap="round" transform="translate(23.999958038330078 538.599983215332) rotate(0 61.20001220703125 21.599990844726562)"><path d="M10.8 0 M10.8 0 C32.44 -2.37, 58.11 -0.32, 111.6 0 M10.8 0 C37.45 1.28, 65.66 1.01, 111.6 0 M111.6 0 C120.02 -1.4, 120.74 3.13, 122.4 10.8 M111.6 0 C119.21 -0.15, 123.94 2.84, 122.4 10.8 M122.4 10.8 C122.21 17.68, 124.29 25.39, 122.4 32.4 M122.4 10.8 C123.11 18.81, 121.52 26.31, 122.4 32.4 M122.4 32.4 C121.38 39.36, 118.3 42.99, 111.6 43.2 M122.4 32.4 C123.77 37.82, 117.56 44.76, 111.6 43.2 M111.6 43.2 C85.06 44.29, 57.84 44.79, 10.8 43.2 M111.6 43.2 C87.08 44.06, 63.36 43.85, 10.8 43.2 M10.8 43.2 C2.84 43.09, -1 39.59, 0 32.4 M10.8 43.2 C4.22 41.43, 0.29 40.95, 0 32.4 M0 32.4 C-0.72 28.21, -0.58 24.72, 0 10.8 M0 32.4 C0.26 25.46, 0.79 18.11, 0 10.8 M0 10.8 C1.07 4.99, 3.2 1.76, 10.8 0 M0 10.8 C-1.77 3.9, 1.53 -0.82, 10.8 0" stroke="#000000" stroke-width="1" fill="none"></path></g><g transform="translate(51.76999282836914 547.6999740600586) rotate(0 33.42997741699219 12.5)"><text x="33.42997741699219" y="0" font-family="Virgil, Segoe UI Emoji" font-size="20px" fill="#000000" text-anchor="middle" style="white-space: pre;" direction="ltr" dominant-baseline="text-before-edge">sandra</text></g><g stroke-linecap="round" transform="translate(637.5999946594238 529.400032043457) rotate(0 61.20001220703125 21.599990844726562)"><path d="M10.8 0 M10.8 0 C32.44 -2.37, 58.11 -0.32, 111.6 0 M10.8 0 C37.45 1.28, 65.66 1.01, 111.6 0 M111.6 0 C120.02 -1.4, 120.74 3.13, 122.4 10.8 M111.6 0 C119.21 -0.15, 123.94 2.84, 122.4 10.8 M122.4 10.8 C122.21 17.68, 124.29 25.39, 122.4 32.4 M122.4 10.8 C123.11 18.81, 121.52 26.31, 122.4 32.4 M122.4 32.4 C121.38 39.36, 118.3 42.99, 111.6 43.2 M122.4 32.4 C123.77 37.82, 117.56 44.76, 111.6 43.2 M111.6 43.2 C85.06 44.29, 57.84 44.79, 10.8 43.2 M111.6 43.2 C87.08 44.06, 63.36 43.85, 10.8 43.2 M10.8 43.2 C2.84 43.09, -1 39.59, 0 32.4 M10.8 43.2 C4.22 41.43, 0.29 40.95, 0 32.4 M0 32.4 C-0.72 28.21, -0.58 24.72, 0 10.8 M0 32.4 C0.26 25.46, 0.79 18.11, 0 10.8 M0 10.8 C1.07 4.99, 3.2 1.76, 10.8 0 M0 10.8 C-1.77 3.9, 1.53 -0.82, 10.8 0" stroke="#000000" stroke-width="1" fill="none"></path></g><g transform="translate(670.1800346374512 538.5000228881836) rotate(0 28.619972229003906 12.5)"><text x="28.619972229003906" y="0" font-family="Virgil, Segoe UI Emoji" font-size="20px" fill="#000000" text-anchor="middle" style="white-space: pre;" direction="ltr" dominant-baseline="text-before-edge">"Peru"</text></g></svg>